<?xml version="1.0" encoding="UTF-8"?>
<!DOCTYPE svg PUBLIC "-//W3C//DTD SVG 1.1//EN" "http://www.w3.org/Graphics/SVG/1.1/DTD/svg11.dtd">
<!-- Creator: CorelDRAW X8 -->
<svg xmlns="http://www.w3.org/2000/svg" xml:space="preserve" width="203px" height="93px" version="1.1" style="shape-rendering:geometricPrecision; text-rendering:geometricPrecision; image-rendering:optimizeQuality; fill-rule:evenodd; clip-rule:evenodd"
viewBox="0 0 2030000 930007"
 xmlns:xlink="http://www.w3.org/1999/xlink">
 <defs>
  <style type="text/css">
   <![CDATA[
    .fil4 {fill:#9D9E9E}
    .fil3 {fill:white}
    .fil2 {fill:#9D9E9E;fill-rule:nonzero}
    .fil5 {fill:#B5B5B5;fill-rule:nonzero}
    .fil6 {fill:#B5B5B5;fill-rule:nonzero}
    .fil1 {fill:#FF0009;fill-rule:nonzero}
    .fil0 {fill:white;fill-rule:nonzero}
   ]]>
  </style>
 </defs>
 <g id="Слой_x0020_1">
  <metadata id="CorelCorpID_0Corel-Layer"/>
  <g id="_119650436272">
   <path class="fil0" d="M763896 499646l0 -115419 -21768 0 0 115419 21768 0zm130264 -115419l-21106 0 0 85076c0,827 0,2811 -1819,2811 -1476,0 -1807,-1654 -2634,-2811l-48969 -77328c-3141,-4948 -8078,-9070 -18307,-9070 -10878,0 -17646,5775 -17646,15661l0 101080 21107 0 0 -84757c0,-2303 1488,-3295 2315,-3295 330,0 980,330 2634,2799l48638 76843c5114,8079 11716,9732 18638,9732 9401,0 17149,-4618 17149,-16323l0 -100418zm75025 115419l0 -98104 45177 0 0 -17315 -111957 0 0 17315 45012 0 0 98104 21768 0zm145926 0l0 -17315 -61666 0c-3460,0 -6106,-166 -7429,-1477 -980,-827 -1642,-2646 -1642,-4453l0 -27047 68422 0 0 -17315 -68422 0 0 -23244c0,-1654 0,-3957 1807,-5611 1654,-1476 3957,-1642 5941,-1642l62328 0 0 -17315 -74032 0c-4453,0 -10064,331 -13855,4453 -2468,2799 -3957,7418 -3957,12036l0 81780c0,4453 331,9732 4288,13524 3791,3626 8244,3626 13193,3626l75024 0zm125316 -115419l-21107 0 0 85076c0,827 0,2811 -1818,2811 -1477,0 -1808,-1654 -2634,-2811l-48969 -77328c-3142,-4948 -8079,-9070 -18307,-9070 -10878,0 -17646,5775 -17646,15661l0 101080 21106 0 0 -84757c0,-2303 1488,-3295 2315,-3295 331,0 981,330 2634,2799l48638 76843c5114,8079 11717,9732 18638,9732 9402,0 17150,-4618 17150,-16323l0 -100418zm84260 115419c18131,0 27698,-8079 32316,-14186 9401,-12531 10216,-32315 10216,-44846 0,-13843 -484,-30343 -11705,-42709 -6921,-7583 -17799,-13678 -33803,-13678l-45177 0c-6922,0 -10713,3130 -12367,4937 -3791,4288 -3956,9237 -3956,13524l0 82288c0,6425 2633,9886 4783,11540 827,661 4288,3130 12862,3130l46831 0zm-42709 -91182c0,-2481 993,-4784 2304,-5776 1488,-1146 3791,-1146 5114,-1146l22594 0c7749,0 18131,1477 24733,8410 7252,7583 8079,19122 8079,29020 0,19618 -2977,28193 -5776,32646 -4949,8079 -12862,10713 -24898,10713l-25063 0c-1972,0 -4122,0 -5610,-1642 -1642,-1819 -1477,-3969 -1477,-6272l0 -65953zm194234 91182l0 -17315 -61666 0c-3460,0 -6094,-166 -7417,-1477 -992,-827 -1654,-2646 -1654,-4453l0 -27047 68434 0 0 -17315 -68434 0 0 -23244c0,-1654 0,-3957 1819,-5611 1642,-1476 3957,-1642 5930,-1642l62327 0 0 -17315 -74032 0c-4453,0 -10052,331 -13855,4453 -2468,2799 -3956,7418 -3956,12036l0 81780c0,4453 330,9732 4287,13524 3803,3626 8244,3626 13193,3626l75024 0zm14847 0l21768 0 0 -89859c0,-2315 0,-4453 2303,-6437 1807,-1642 3461,-1808 5775,-1808l35280 0c3461,0 8741,0 12201,3461 2315,2303 4122,6921 4122,15992 0,3957 -330,12201 -2634,15827 -2964,4618 -8078,5114 -11870,5114l-21768 0c-6271,0 -9732,3296 -9732,7914l0 2634c0,3307 3130,7429 5445,9732l37925 37430 27367 0 -43855 -40725 0 -827 14835 0c13193,0 18803,-6272 21768,-11870 4618,-8575 4949,-17646 4949,-26055 0,-8410 -331,-17481 -5776,-25394 -6756,-10052 -16654,-10548 -24733,-10548l-54744 0c-4287,0 -9721,662 -13843,4619 -4618,4452 -4783,10216 -4783,15000l0 95800zm160926 0l21768 0 0 -89859c0,-2315 0,-4453 2303,-6437 1819,-1642 3473,-1808 5776,-1808l35280 0c3472,0 8740,0 12212,3461 2304,2303 4123,6921 4123,15992 0,3957 -331,12201 -2646,15827 -2965,4618 -8079,5114 -11870,5114l-21768 0c-6260,0 -9721,3296 -9721,7914l0 2634c0,3307 3130,7429 5433,9732l37926 37430 27378 0 -43866 -40725 0 -827 14846 0c13181,0 18792,-6272 21756,-11870 4618,-8575 4949,-17646 4949,-26055 0,-8410 -331,-17481 -5764,-25394 -6768,-10052 -16653,-10548 -24732,-10548l-54745 0c-4287,0 -9732,662 -13854,4619 -4618,4452 -4784,10216 -4784,15000l0 95800zm171155 -15993c-6756,0 -16654,-826 -22748,-7417 -5445,-5941 -5610,-13689 -5610,-20126l0 -71883 -21768 0 0 74859c0,9721 1323,20611 10063,29516 11539,11870 29516,12366 40063,12366 10559,0 28524,-496 40063,-12366 8741,-8905 10064,-19795 10064,-29516l0 -74859 -21768 0 0 71883c0,5775 -166,14350 -5433,20126 -5941,6591 -16654,7417 -22926,7417z"/>
   <polygon class="fil1" points="1632202,499646 1632202,478374 1612087,478374 1612087,499646 "/>
   <path class="fil2" d="M676482 555111l6590 0 0 27590c4134,-5870 10087,-8811 17847,-8811 7476,0 13748,2540 18803,7618 5067,5091 7606,11587 7606,19548 0,7866 -2551,14303 -7665,19358 -5126,5044 -11303,7559 -18567,7559 -7937,0 -13961,-3094 -18024,-9295l0 26492 -6590 0 0 -26492c-4004,6236 -10063,9343 -18166,9343 -7134,0 -13276,-2516 -18390,-7559 -5126,-5056 -7701,-11516 -7701,-19406 0,-7961 2540,-14457 7607,-19548 5055,-5078 11327,-7618 18803,-7618 7925,0 13878,2941 17847,8811l0 -27590zm6389 46831c0,6141 1760,10949 5268,14445 3496,3508 7524,5244 12059,5244 6178,0 11138,-2044 14859,-6130 3732,-4099 5586,-9024 5586,-14788 0,-5929 -1972,-10890 -5893,-14811 -3922,-3933 -8634,-5905 -14115,-5905 -4960,0 -9153,1759 -12590,5279 -3437,3496 -5174,9071 -5174,16666zm-43961 -1170c0,5729 1855,10630 5552,14729 3720,4086 8669,6130 14870,6130 2150,0 4453,-544 6909,-1630 2445,-1075 4430,-2445 5918,-4110 1500,-1666 2634,-3567 3390,-5729 755,-2185 1133,-5338 1133,-9543 0,-6650 -1736,-11764 -5196,-15296 -3473,-3555 -7666,-5326 -12579,-5326 -5516,0 -10229,1972 -14138,5905 -3898,3921 -5859,8894 -5859,14870zm107198 -25807l0 38079 37831 -38079 520 0 0 51414 -6591 0 0 -37796 -37535 37796 -804 0 0 -51414 6579 0zm89694 26622l-30024 0 0 24792 -6591 0 0 -51414 6591 0 0 20422 30024 0 0 -20422 6579 0 0 51414 -6579 0 0 -24792zm72544 -26622l0 51414 -6591 0 0 -8847c-2776,3378 -5870,5906 -9331,7595 -3437,1677 -7205,2516 -11291,2516 -7264,0 -13477,-2634 -18626,-7890 -5150,-5280 -7713,-11670 -7713,-19229 0,-7370 2598,-13701 7795,-18945 5174,-5244 11422,-7878 18733,-7878 4216,0 8020,886 11445,2658 3401,1783 6413,4464 8988,8055l0 -9449 6591 0zm-26505 5126c-3673,0 -7086,910 -10181,2717 -3118,1783 -5586,4323 -7429,7582 -1842,3260 -2752,6709 -2752,10359 0,3602 910,7051 2776,10346 1854,3296 4334,5859 7464,7678 3130,1842 6496,2763 10075,2763 3603,0 7040,-897 10264,-2728 3248,-1819 5728,-4276 7477,-7394 1736,-3094 2610,-6590 2610,-10488 0,-5917 -1949,-10878 -5870,-14858 -3910,-3993 -8717,-5977 -14434,-5977zm78037 21496l-30024 0 0 24792 -6579 0 0 -51414 6579 0 0 20422 30024 0 0 -20422 6578 0 0 51414 -6578 0 0 -24792zm71280 -15945l-5245 3260c-4547,-6000 -10759,-9000 -18637,-9000 -6296,0 -11528,2020 -15686,6036 -4145,4015 -6236,8893 -6236,14634 0,3744 957,7263 2882,10559 1902,3295 4535,5858 7866,7677 3331,1831 7075,2728 11221,2728 7583,0 13783,-3000 18590,-9000l5245 3449c-2469,3697 -5776,6555 -9922,8599 -4157,2043 -8894,3059 -14197,3059 -8173,0 -14929,-2587 -20303,-7737 -5374,-5161 -8055,-11421 -8055,-18815 0,-4960 1252,-9567 3768,-13831 2504,-4263 5964,-7582 10346,-9980 4406,-2386 9319,-3579 14752,-3579 3425,0 6721,520 9898,1548 3165,1039 5858,2385 8067,4051 2232,1665 4098,3779 5646,6342zm19228 9650l6307 0c5020,0 8941,390 11788,1181 2834,791 5291,2540 7334,5232 2056,2693 3083,5788 3083,9296 0,4228 -1476,7842 -4453,10854 -2952,3024 -7452,4524 -13476,4524l-17126 0 0 -51414 6543 0 0 20327zm236 6106l0 19371 7642 0c8988,0 13477,-3154 13477,-9426 0,-1795 -485,-3555 -1453,-5279 -957,-1725 -2374,-2941 -4217,-3638 -1854,-685 -5114,-1028 -9791,-1028l-5658 0zm37477 -26433l6591 0 0 51414 -6591 0 0 -51414zm54107 0l0 38079 37831 -38079 508 0 0 51414 -6579 0 0 -37796 -37548 37796 -803 0 0 -51414 6591 0zm129851 10677l-5244 3260c-4547,-6000 -10760,-9000 -18638,-9000 -6295,0 -11528,2020 -15685,6036 -4158,4015 -6236,8893 -6236,14634 0,3744 956,7263 2870,10559 1913,3295 4535,5858 7878,7677 3330,1831 7075,2728 11220,2728 7583,0 13784,-3000 18591,-9000l5244 3449c-2468,3697 -5776,6555 -9921,8599 -4170,2043 -8894,3059 -14209,3059 -8161,0 -14929,-2587 -20303,-7737 -5374,-5161 -8055,-11421 -8055,-18815 0,-4960 1263,-9567 3779,-13831 2504,-4263 5953,-7582 10347,-9980 4405,-2386 9307,-3579 14752,-3579 3425,0 6708,520 9897,1548 3154,1039 5859,2385 8067,4051 2221,1665 4099,3779 5646,6342zm56103 23693l5587 2941c-1843,3567 -3957,6449 -6367,8646 -2397,2185 -5102,3862 -8102,5008 -3012,1146 -6402,1713 -10193,1713 -8433,0 -15000,-2752 -19736,-8233 -4748,-5492 -7123,-11693 -7123,-18590 0,-6508 2020,-12319 6036,-17398 5079,-6473 11906,-9721 20445,-9721 8799,0 15839,3319 21083,9957 3732,4677 5634,10524 5693,17540l-46477 0c130,5964 2043,10830 5740,14622 3721,3815 8303,5716 13737,5716 2633,0 5196,-449 7689,-1358 2480,-898 4594,-2091 6342,-3591 1736,-1500 3626,-3909 5646,-7252zm59 -13842c-886,-3544 -2173,-6343 -3874,-8457 -1701,-2114 -3945,-3815 -6744,-5102 -2788,-1288 -5729,-1937 -8800,-1937 -5078,0 -9437,1618 -13086,4854 -2681,2374 -4677,5906 -6048,10642l38552 0zm19547 -20528l6591 0 0 9449c2610,-3591 5610,-6272 9012,-8055 3413,-1772 7205,-2658 11398,-2658 7311,0 13559,2634 18756,7878 5197,5244 7795,11575 7795,18945 0,7559 -2587,13949 -7725,19229 -5149,5256 -11362,7890 -18649,7890 -4075,0 -7843,-863 -11280,-2552 -3437,-1712 -6531,-4252 -9307,-7618l0 27697 -6591 0 0 -70205zm26516 5126c-5728,0 -10535,1984 -14445,5977 -3921,3980 -5870,8941 -5870,14858 0,3898 874,7394 2610,10488 1748,3118 4252,5575 7489,7394 3260,1831 6697,2728 10299,2728 3555,0 6898,-921 10028,-2763 3130,-1819 5610,-4382 7464,-7678 1855,-3295 2776,-6744 2776,-10346 0,-3650 -921,-7099 -2752,-10359 -1843,-3259 -4311,-5799 -7429,-7582 -3095,-1807 -6508,-2717 -10170,-2717zm54414 46288l-14965 0 0 -51414 14729 0c5622,0 9673,1288 12154,3851 2468,2586 3720,5598 3720,9059 0,5208 -2315,8728 -6933,10582 6685,2374 10028,6945 10028,13701 0,9473 -6249,14221 -18733,14221zm-8386 -45709l0 15980 4323 0c3945,0 6532,-165 7725,-472 1204,-319 2338,-1087 3401,-2315 1063,-1252 1595,-2882 1595,-4925 0,-2126 -544,-3910 -1654,-5339 -1122,-1453 -2279,-2291 -3508,-2551 -1228,-248 -3744,-378 -7559,-378l-4323 0zm0 22087l0 18012 7122 0c3355,0 5764,-213 7193,-650 1441,-425 2681,-1346 3697,-2764 1040,-1417 1547,-3212 1547,-5386 0,-2811 -885,-5043 -2657,-6720 -1772,-1654 -4110,-2492 -7016,-2492l-9886 0zm45308 -27792l0 38079 37831 -38079 519 0 0 51414 -6590 0 0 -37796 -37536 37796 -815 0 0 -51414 6591 0zm103052 10677l-5244 3260c-4560,-6000 -10772,-9000 -18650,-9000 -6296,0 -11516,2020 -15685,6036 -4146,4015 -6225,8893 -6225,14634 0,3744 945,7263 2870,10559 1902,3295 4536,5858 7878,7677 3319,1831 7063,2728 11221,2728 7583,0 13772,-3000 18591,-9000l5244 3449c-2469,3697 -5776,6555 -9933,8599 -4158,2043 -8894,3059 -14197,3059 -8174,0 -14930,-2587 -20304,-7737 -5374,-5161 -8055,-11421 -8055,-18815 0,-4960 1264,-9567 3780,-13831 2504,-4263 5952,-7582 10346,-9980 4406,-2386 9307,-3579 14752,-3579 3414,0 6709,520 9886,1548 3166,1039 5858,2385 8067,4051 2232,1665 4110,3779 5658,6342zm19216 9650l6307 0c5020,0 8941,390 11788,1181 2835,791 5291,2540 7346,5232 2044,2693 3083,5788 3083,9296 0,4228 -1488,7842 -4453,10854 -2964,3024 -7464,4524 -13476,4524l-17126 0 0 -51414 6531 0 0 20327zm248 6106l0 19371 7630 0c8989,0 13477,-3154 13477,-9426 0,-1795 -484,-3555 -1453,-5279 -957,-1725 -2374,-2941 -4217,-3638 -1854,-685 -5114,-1028 -9791,-1028l-5646 0zm37477 -26433l6579 0 0 51414 -6579 0 0 -51414z"/>
   <polygon class="fil1" points="632273,353589 721494,353589 721494,370904 654371,370904 654371,414641 721435,414641 721435,432074 654371,432074 654371,499681 632273,499681 "/>
   <rect class="fil3" x="189845" y="335240" width="331210" height="331212"/>
   <path class="fil1" d="M501405 426913l-63957 -63969 63957 0 0 63969zm-180048 182481c-1122,1441 -1666,3225 -1666,5315 0,402 24,863 83,1382 71,520 201,1052 390,1583 401,980 1087,1878 2067,2705 992,815 2468,1264 4441,1323 460,0 921,-24 1382,-95 460,-59 909,-165 1370,-295 992,-331 2008,-839 3059,-1524 1051,-685 2197,-1665 3449,-2905l-10146 -11327c-1843,1122 -3307,2398 -4429,3838zm12496 -34370c-248,-59 -508,-130 -732,-189 -237,-71 -473,-106 -733,-106 -200,0 -401,23 -602,47 -201,36 -390,83 -579,154 -1051,389 -2008,1122 -2870,2161 -850,1051 -1275,2599 -1275,4630 0,461 47,957 153,1476 95,532 248,1052 437,1571 402,1063 957,2079 1677,3059 721,993 1477,1914 2256,2764 343,-271 673,-543 1051,-838 355,-296 697,-615 1028,-933 1051,-993 1984,-2138 2811,-3449 815,-1311 1228,-2764 1228,-4335 0,-1772 -401,-3142 -1181,-4087 -791,-945 -1677,-1594 -2669,-1925zm148371 46501c-12791,8692 -27567,13039 -44303,13039l-2410 236c-4500,-153 -8775,-567 -12791,-1205 -4028,-637 -8055,-1606 -12071,-2893 -5953,-1937 -12036,-4748 -18225,-8445 -6201,-3709 -12909,-8528 -20149,-14481l22441 -35976 2409 0c803,815 1618,1571 2421,2291 804,732 1607,1500 2410,2291 4512,3874 9543,7489 15094,10867 5540,3378 11221,5563 17008,6519 650,166 1288,284 1938,367 637,82 1287,118 1925,118 4500,-166 7807,-1040 9897,-2658 2091,-1594 3544,-3366 4347,-5315 484,-1122 803,-2244 968,-3366 154,-1134 237,-2102 237,-2906 0,-6271 -2174,-10700 -6520,-13275 -4347,-2575 -9732,-4737 -16169,-6520 -319,-154 -721,-272 -1205,-354 -484,-83 -969,-201 -1453,-366 -2575,-638 -5350,-1441 -8327,-2422 -2976,-956 -6000,-2090 -9047,-3378 -7406,-3378 -14244,-8563 -20516,-15567 -6272,-7004 -9425,-17338 -9425,-31016 0,-14315 5114,-26386 15331,-36201 10228,-9827 24897,-14728 44067,-14728l2397 0c4512,0 11434,850 20764,2527 9331,1689 19158,6083 29457,13170 154,153 355,319 603,472 236,165 437,331 602,484l-16902 35481 -2409 0c-815,-638 -1618,-1323 -2410,-2043 -815,-733 -1618,-1406 -2421,-2055 -4027,-3060 -8043,-5587 -12071,-7607 -4016,-2008 -8291,-3094 -12791,-3260 -4347,166 -7642,1051 -9898,2658 -2256,1606 -3862,3460 -4819,5551 -650,1134 -1051,2256 -1216,3378 -166,1122 -237,2102 -237,2894 0,3555 1205,6330 3614,8338 2422,2008 5150,3496 8209,4465 1453,472 2906,886 4347,1205 1452,319 2728,649 3862,956 2894,650 6236,1500 10016,2540 3779,1051 7689,2539 11705,4464 7724,3544 14811,9060 21248,16536 6437,7488 9649,18473 9649,32941 0,19488 -6389,33567 -19181,42249zm-111131 11504l-19996 0 -5811 -6107c-531,461 -1027,910 -1535,1335 -485,425 -957,803 -1418,1134 -2504,1901 -5067,3260 -7689,4086 -2622,815 -5681,1229 -9153,1229l-992 94c-7678,-59 -13441,-1949 -17280,-5657 -3839,-3709 -5752,-8256 -5752,-13642 0,-1382 165,-2953 531,-4725 367,-1771 1170,-3614 2422,-5527 1181,-1689 2823,-3366 4925,-5008 2102,-1642 4890,-3118 8362,-4441 -649,-780 -1264,-1524 -1819,-2209 -567,-685 -1075,-1358 -1523,-2019 -922,-1382 -1607,-2788 -2079,-4241 -461,-1441 -685,-3141 -685,-5114 0,-5256 1724,-9886 5173,-13890 3449,-4016 8292,-6000 14528,-6000l980 0c6366,0 11244,1807 14622,5457 3390,3650 5079,8197 5079,13642 0,3685 -850,6697 -2563,9059 -1701,2374 -4134,4630 -7287,6791 -390,272 -780,532 -1182,792 -389,271 -826,531 -1287,791l7595 8374 9260 -9260 980 0 9744 10240 -9650 9060 14481 15756 -981 0zm-78248 1771l-79690 0 0 -270805 166360 0 0 64985 -86670 0 0 40630 78544 0 0 62280 -78544 0 0 102910zm233565 -332353l-335826 0c-18378,0 -33272,14894 -33272,33260l0 335838c0,18366 14894,33271 33272,33271l335826 0c18378,0 33272,-14905 33272,-33271l0 -335838c0,-18366 -14894,-33260 -33272,-33260z"/>
   <rect class="fil4" x="632258" y="532811" width="1231688" height="7098"/>
  </g>
  <path class="fil5" d="M367432 25571l60662 0 0 10984 -48237 0 0 82643 -12425 0 0 -93627zm70678 93627l0 -93627 35339 0c8090,0 14563,709 19370,2114 4819,1406 8811,4347 12012,8788 3201,4441 4795,9850 4795,16193 0,8043 -2575,14799 -7736,20268 -5150,5468 -14280,8208 -27355,8208l-24012 0 0 38056 -12413 0zm12413 -49028l24189 0c7370,0 12898,-1441 16583,-4299 3685,-2871 5516,-7146 5516,-12839 0,-3957 -1004,-7347 -3012,-10134 -1972,-2764 -4311,-4524 -6968,-5244 -2682,-721 -6804,-1099 -12355,-1099l-23953 0 0 33615zm65446 -44599l12519 0 30532 57367 26717 -57367 12342 0 -35149 72839c-4382,9107 -7985,15071 -10796,17882 -2811,2823 -6838,4217 -12071,4217 -3201,0 -7122,-744 -11764,-2232l0 -10583c3307,1913 6839,2870 10548,2870 3023,0 5622,-957 7819,-2894 2208,-1937 4630,-6366 7263,-13276l-37960 -68823zm92611 0l73618 0 0 93627 -12425 0 0 -82643 -48768 0 0 82643 -12425 0 0 -93627zm93992 0l73607 0 0 93627 -12413 0 0 -82643 -48768 0 0 82643 -12426 0 0 -93627zm83659 93627l35953 -93627 13346 0 38304 93627 -14115 0 -10925 -28382 -39142 0 -10264 28382 -13157 0zm27000 -38445l31748 0 -9780 -25902c-3094,-8268 -5315,-14740 -6626,-19429 -1204,6023 -2882,11964 -5055,17870l-10287 27461zm106926 -55182l12425 0 0 41020c5669,0 9650,-1087 11965,-3295 2315,-2173 5256,-7453 8823,-15780 2598,-6118 4748,-10453 6437,-12980 1677,-2528 4086,-4642 7181,-6366 3118,-1725 6567,-2599 10311,-2599 4772,0 7299,47 7547,142l0 10677c-425,0 -1252,-24 -2492,-71 -1346,-47 -2197,-59 -2480,-59 -3969,0 -6910,957 -8847,2870 -1937,1925 -4169,6012 -6697,12272 -3130,7913 -5811,12898 -7972,14965 -2173,2055 -4772,3708 -7796,4949 6048,1665 12001,7240 17883,16724l19287 31158 -15402 0 -15673 -25406c-4311,-7028 -7913,-11858 -10807,-14480 -2894,-2611 -6673,-3922 -11268,-3922l0 43808 -12425 0 0 -93627zm72118 47989c0,-15579 4205,-27756 12591,-36520 8398,-8788 19134,-13158 32256,-13158 13158,0 23906,4465 32233,13370 8315,8918 12484,20670 12484,35221 0,14492 -4193,26150 -12579,34996 -8386,8870 -19134,13300 -32209,13300 -9413,0 -17669,-2363 -24756,-7063 -7075,-4713 -12201,-10749 -15342,-18130 -3107,-7394 -4678,-14729 -4678,-22016zm12815 177c0,10701 2894,19441 8670,26244 5799,6791 13535,10193 23232,10193 9520,0 17256,-3354 23162,-10075 5905,-6709 8870,-15945 8870,-27709 0,-11941 -2988,-21248 -8941,-27921 -5941,-6662 -13595,-10004 -22902,-10004 -9142,0 -16772,3142 -22901,9401 -6119,6272 -9190,16229 -9190,29871zm92541 45461l0 -93627 18614 0 22181 66296 4477 13866c885,-2988 2539,-8008 4984,-15024l22429 -65138 16618 0 0 93627 -11893 0 0 -78343 -27213 78343 -11185 0 -27107 -79678 0 79678 -11905 0zm109311 -93627l73619 0 0 93627 -12425 0 0 -82643 -48768 0 0 82643 -12426 0 0 -93627zm83659 93627l35964 -93627 13335 0 38304 93627 -14115 0 -10913 -28382 -39142 0 -10264 28382 -13169 0zm27000 -38445l31760 0 -9792 -25902c-3094,-8268 -5315,-14740 -6626,-19429 -1193,6023 -2870,11964 -5055,17870l-10287 27461zm70866 38445l0 -93627 12426 0 0 38445 48638 0 0 -38445 12425 0 0 93627 -12425 0 0 -44197 -48638 0 0 44197 -12426 0zm94300 -93627l11245 0 0 74138 49772 -74138 12460 0 0 93627 -11244 0 0 -73938 -49831 73938 -12402 0 0 -93627zm110092 -21567l8669 0c1666,5315 6024,7972 13075,7972 7110,0 11492,-2657 13169,-7972l8670 0c-260,4441 -2244,8209 -5941,11303 -3697,3095 -8705,4654 -15000,4654 -7914,0 -13618,-1642 -17126,-4914 -3508,-3236 -5363,-6945 -5516,-11043zm-16099 21567l11244 0 0 74138 49772 -74138 12461 0 0 93627 -11244 0 0 -73938 -49831 73938 -12402 0 0 -93627z"/>
  <path class="fil6" d="M34477 80788l257458 0 0 7784 -257458 0c-4595,0 -8776,1878 -11800,4901 -3023,3024 -4901,7205 -4901,11799l0 792963c0,4595 1878,8776 4901,11800 3024,3023 7205,4901 11800,4901l1966952 0c4594,0 8776,-1878 11799,-4901 3024,-3024 4902,-7205 4902,-11800l0 -792963c0,-4594 -1878,-8775 -4902,-11799 -3023,-3023 -7205,-4901 -11799,-4901l-257447 0 0 -7784 257447 0c6744,0 12862,2752 17303,7181 4429,4441 7181,10559 7181,17303l0 792963c0,6744 -2752,12863 -7181,17304 -4441,4429 -10559,7181 -17303,7181l-1966952 0c-6745,0 -12863,-2752 -17304,-7181 -4429,-4441 -7181,-10560 -7181,-17304l0 -792963c0,-6744 2752,-12862 7181,-17303 4441,-4429 10559,-7181 17304,-7181z"/>
 </g>
</svg>
