<?xml version="1.0" encoding="UTF-8"?>
<!DOCTYPE svg PUBLIC "-//W3C//DTD SVG 1.1//EN" "http://www.w3.org/Graphics/SVG/1.1/DTD/svg11.dtd">
<!-- Creator: CorelDRAW X8 -->
<svg xmlns="http://www.w3.org/2000/svg" xml:space="preserve" width="60.333mm" height="26.197mm" version="1.1" style="shape-rendering:geometricPrecision; text-rendering:geometricPrecision; image-rendering:optimizeQuality; fill-rule:evenodd; clip-rule:evenodd"
viewBox="0 0 6033 2620"
 xmlns:xlink="http://www.w3.org/1999/xlink">
 <defs>
  <style type="text/css">
   <![CDATA[
    .fil2 {fill:#E22232;fill-rule:nonzero}
    .fil1 {fill:#E21E32;fill-rule:nonzero}
    .fil0 {fill:#E9E9E9;fill-rule:nonzero}
   ]]>
  </style>
 </defs>
 <g id="Слой_x0020_1">
  <metadata id="CorelCorpID_0Corel-Layer"/>
  <g id="rts_logo.cdr">
   <path class="fil0" d="M2617 2402c0,119 -97,216 -216,216l-2183 0c-120,0 -217,-97 -217,-216l0 -2183c0,-120 97,-217 217,-217l2183 0c119,0 216,97 216,217l0 2183z"/>
   <path class="fil1" d="M744 1312l49 0c77,0 85,-45 85,-71 0,-31 -10,-71 -85,-71l-49 0 0 142zm-174 -278l261 0c176,0 226,122 226,207 0,86 -50,208 -226,208l-87 0 0 204 -174 0 0 -619z"/>
   <polygon class="fil1" points="1224,1182 1088,1182 1088,1034 1534,1034 1534,1182 1398,1182 1398,1653 1224,1653 "/>
   <path class="fil1" d="M2052 1625c-56,38 -114,46 -167,46 -184,0 -317,-130 -317,-328 0,-207 146,-327 314,-327 55,0 118,14 170,49l0 180c-32,-37 -80,-74 -147,-74 -95,0 -158,76 -158,178 0,93 59,167 158,167 65,0 115,-35 147,-67l0 176z"/>
   <polygon class="fil1" points="945,705 881,705 881,685 1035,685 1035,705 970,705 970,867 945,867 "/>
   <path class="fil1" d="M1211 758c-1,-29 -22,-60 -59,-60 -34,0 -59,24 -64,60l123 0zm25 61c-15,30 -41,55 -84,55 -61,0 -93,-49 -93,-98 0,-52 32,-98 93,-98 62,0 84,53 84,88l0 12 -150 0c-1,35 21,76 66,76 15,0 44,-2 64,-45l20 10z"/>
   <polygon class="fil1" points="1286,685 1311,685 1311,764 1413,764 1413,685 1438,685 1438,867 1413,867 1413,784 1311,784 1311,867 1286,867 "/>
   <path class="fil1" d="M1609 705l-67 0 0 86c0,24 -6,43 -23,56l90 0 0 -142zm25 -20l0 162 26 0 0 66 -23 0 0 -46 -138 0 0 46 -24 0 0 -66c39,-3 42,-41 42,-73l0 -89 117 0z"/>
   <path class="fil1" d="M1840 758c-1,-29 -21,-60 -58,-60 -34,0 -60,24 -65,60l123 0zm25 61c-15,30 -40,55 -83,55 -61,0 -94,-49 -94,-98 0,-52 33,-98 94,-98 62,0 83,53 83,88l0 12 -150 0c-1,35 22,76 67,76 14,0 44,-2 64,-45l19 10z"/>
   <path class="fil1" d="M2074 776c0,-36 -20,-78 -70,-78 -39,0 -65,35 -65,78 0,51 33,78 69,78 41,0 66,-34 66,-78zm-135 -91l0 32c11,-20 32,-39 68,-39 55,0 93,39 93,98 0,55 -35,98 -92,98 -38,0 -58,-22 -67,-35l0 115 -25 0 0 -269 23 0z"/>
   <path class="fil2" d="M3096 769l0 -6c0,-31 -10,-54 -23,-69 -16,-18 -35,-21 -55,-21 -21,0 -41,4 -63,20l-18 -28c29,-20 58,-26 81,-26 33,0 63,9 87,34 34,35 38,80 38,115 0,34 -4,87 -41,124 -28,29 -61,33 -88,33 -19,0 -36,-3 -53,-10 -11,-4 -21,-10 -29,-16l18 -30c24,18 46,23 66,23 14,0 38,-2 57,-20 21,-21 23,-56 23,-82l0 -7 -105 0 0 -34 105 0z"/>
   <path class="fil2" d="M3096 769l0 -3 0 3zm-134 163c17,7 33,10 52,10l0 0c26,0 58,-4 86,-32l0 0c36,-36 40,-89 40,-122l0 0c0,-35 -5,-79 -37,-113l0 0c-24,-24 -53,-32 -85,-33l0 0c-22,0 -49,5 -77,24l0 0 15 23c22,-15 42,-19 62,-19l0 0c20,0 40,3 57,22l0 0c14,15 24,40 24,71l0 9 -105 0 0 28 105 0 0 10c0,26 -2,62 -24,84l0 0c-19,19 -45,21 -59,21l0 0c-20,0 -42,-4 -65,-22l0 0 -15 25c7,5 16,10 26,14l0 0zm-2 6c-12,-5 -22,-11 -30,-17l0 0 -2 -2 22 -35 2 2c23,18 44,22 64,22l0 0c14,0 37,-1 54,-18l0 0c20,-20 23,-54 23,-80l0 -4 -105 0 0 -40 105 0 0 -3c0,-30 -9,-53 -22,-67l0 0c-16,-17 -34,-20 -53,-20l0 0c-20,0 -40,4 -61,20l0 0 -3 2 -21 -34 2 -1c30,-21 60,-27 83,-27l0 0c33,0 64,9 90,35l0 0c34,35 38,82 38,117l0 0c0,34 -4,88 -41,127l0 0c-30,29 -64,33 -91,33l0 0c-19,0 -37,-3 -54,-10l0 0z"/>
   <path class="fil2" d="M3305 742c-2,35 -6,83 -9,110 -3,23 -8,54 -28,72 -15,15 -32,18 -46,19l-13 1 -7 -29 10 -3c7,-2 17,-6 25,-13 18,-16 21,-45 24,-76 3,-27 7,-87 8,-113l3 -66 151 0 0 297 -41 0 0 -264 -73 0 -4 65z"/>
   <path class="fil2" d="M3272 710c-1,27 -5,87 -8,113l0 0c-3,31 -6,61 -25,78l0 0c-8,8 -19,12 -26,14l0 0 -8 2 7 24 10 -1c14,-1 30,-4 44,-18l0 0c19,-17 24,-48 27,-71l0 0c3,-26 7,-74 9,-110l0 0 4 -67 79 0 0 264 35 0 0 -291 -145 0 -3 63 0 0zm-74 203l3 -1 10 -3c7,-2 17,-6 24,-13l0 0c16,-14 20,-42 23,-74l0 0c3,-26 7,-86 8,-112l0 0 3 -70 157 0 0 304 -47 0 0 -264 -68 0 -3 62c-2,35 -5,83 -9,110l0 0c-3,23 -8,55 -28,75l0 0c-16,15 -35,18 -49,19l0 0 -15 2 -9 -35 0 0z"/>
   <polygon class="fil2" points="3536,941 3536,644 3698,644 3692,678 3577,678 3577,769 3674,769 3674,802 3577,802 3577,906 3702,906 3702,941 "/>
   <path class="fil2" d="M3539 938l160 0 0 -29 -125 0 0 -110 96 0 0 -27 -96 0 0 -97 115 0 5 -28 -155 0 0 291zm-3 6l0 -3 3 0 -3 0 0 3 -3 0 0 -303 168 0 -6 40 -115 0 0 85 97 0 0 39 -97 0 0 98 126 0 0 41 -170 0 0 0z"/>
   <path class="fil2" d="M3998 669l-15 3c-5,1 -10,3 -15,8 -6,5 -8,11 -9,18l-11 37c-3,12 -6,26 -19,38 -5,5 -11,8 -16,10l0 1c6,2 12,5 16,10 11,10 15,24 18,34l16 56c1,5 3,13 9,18 4,5 12,7 20,10l11 4 -8 28 -21 -2c-12,-1 -27,-4 -37,-14 -10,-9 -14,-23 -16,-36l-11 -52c-2,-10 -7,-23 -14,-30 -9,-9 -21,-10 -29,-10l-34 0 0 141 -42 0 0 -297 42 0 0 122 34 0c8,0 24,0 34,-10 8,-8 10,-18 12,-29l9 -38c2,-11 5,-23 14,-32 11,-11 26,-14 34,-15l19 -2 9 29z"/>
   <path class="fil2" d="M3867 797c8,0 21,1 31,11l0 0c8,7 13,21 15,32l0 0 11 52c2,12 6,26 15,34l0 0c9,9 24,12 35,13l0 0 19 2 6 -24 -8 -2c-8,-3 -16,-5 -22,-11l0 0c-6,-6 -8,-14 -9,-19l0 0 -16 -56c-3,-10 -7,-23 -17,-33l0 0c-4,-4 -10,-8 -15,-10l0 0 -2 0 0 -5 1 -1c6,-2 11,-5 16,-10l0 0c12,-11 15,-23 18,-36l0 0 11 -37c1,-7 3,-14 10,-19l0 0c5,-5 11,-8 17,-9l0 0 11 -3 -7 -23 -16 3c-8,0 -23,3 -33,13l0 0c-8,8 -11,19 -13,31l0 0 -9 38c-2,10 -4,21 -13,30l0 0c-11,11 -27,11 -36,11l-37 0 0 -122 -36 0 0 291 36 0 0 -141 37 0 0 0zm128 150l-22 -2c-11,-1 -27,-4 -38,-15l0 0c-11,-10 -15,-24 -17,-37l0 0 -11 -52c-2,-10 -7,-23 -13,-29l0 0c-8,-8 -19,-9 -27,-9l-31 0 0 141 -48 0 0 -304 48 0 0 123 31 0c8,0 23,-1 32,-9l0 0c7,-7 9,-17 11,-27l0 0 9 -39c2,-11 5,-23 15,-33l0 0c11,-12 28,-15 36,-16l0 0 22 -2 8 31 -2 1 2 -1 1 3 -3 1 -14 3c-5,1 -10,3 -14,7l0 0c-5,5 -7,10 -8,16l0 0 -11 38c-3,12 -6,26 -20,39l0 0c-3,3 -7,6 -11,8l0 0c4,2 8,5 12,9l0 0c11,11 15,25 18,35l0 0 16 56c1,5 3,12 8,17l0 0c4,4 11,7 19,9l0 0 13 4 -8 35 -3 -1 0 0z"/>
   <polygon class="fil2" points="4250,678 4174,678 4174,941 4132,941 4132,678 4055,678 4055,644 4255,644 "/>
   <path class="fil2" d="M4250 678l0 -3 0 3zm-192 -3l77 0 0 263 35 0 0 -263 78 0 3 -28 -193 0 0 28zm71 269l0 -263 -77 0 0 -40 206 0 -5 37 0 3 -76 0 0 263 -48 0 0 0z"/>
   <path class="fil2" d="M4450 692c-10,-10 -25,-15 -48,-15l-39 0 0 114 47 0c20,0 33,-5 42,-17 8,-10 13,-23 13,-40 0,-19 -5,-32 -15,-42zm25 114c-15,12 -31,18 -62,18l-50 0 0 117 -41 0 0 -297 79 0c39,0 55,4 71,13 26,16 39,41 39,73 0,34 -10,56 -36,76z"/>
   <path class="fil2" d="M4409 794l-49 0 0 -120 42 0c23,0 39,5 50,16l0 0 -2 2 -2 2c-10,-9 -23,-14 -46,-14l-36 0 0 108 43 0c20,0 32,-5 41,-16l0 0c8,-10 12,-21 12,-38l0 0c0,-18 -5,-31 -14,-40l0 0 2 -2 2 -2c11,10 16,25 16,44l0 0c0,18 -5,31 -13,42l0 0c-10,13 -24,18 -45,18l0 0c0,0 0,0 -1,0l0 0zm-84 144l35 0 0 -117 53 0c31,0 46,-6 60,-17l0 0c26,-20 35,-41 35,-74l0 0c0,-31 -13,-55 -38,-70l0 0c-15,-9 -30,-13 -69,-13l-76 0 0 291zm-6 6l0 -303 82 0c39,-1 56,4 73,14l0 0c26,16 40,42 40,75l0 0c1,34 -10,58 -37,79l0 0c-15,12 -33,18 -64,18l-47 0 0 117 -47 0 0 0z"/>
   <path class="fil2" d="M4704 671c-53,0 -74,39 -74,115 0,76 17,127 76,127 47,0 73,-33 73,-115 0,-80 -19,-127 -75,-127zm2 274c-82,0 -123,-65 -123,-153 0,-98 47,-153 120,-153 88,0 122,73 122,156 0,90 -44,150 -119,150z"/>
   <path class="fil2" d="M4627 786c0,-76 22,-118 77,-118l0 6c-51,0 -71,37 -71,112l0 0c0,76 17,124 73,124l0 0c44,0 69,-30 70,-112l0 0c-1,-80 -18,-124 -72,-124l0 -6c59,0 78,50 78,130l0 0c0,82 -27,118 -76,118l0 0c-61,0 -79,-54 -79,-130l0 0zm-47 6c0,-99 49,-156 123,-156l0 0c90,0 125,76 126,159l0 0c-1,91 -46,153 -124,153l0 -6c74,0 117,-58 117,-147l0 0c0,-82 -33,-152 -119,-153l0 0c-71,1 -117,53 -117,150l0 0c0,87 40,150 119,150l0 6c-83,0 -125,-67 -125,-156l0 0z"/>
   <polygon class="fil2" points="5080,941 5080,800 4967,800 4967,941 4925,941 4925,644 4967,644 4967,766 5080,766 5080,644 5121,644 5121,941 "/>
   <path class="fil2" d="M5118 938l0 -291 -35 0 0 122 -120 0 0 -122 -35 0 0 291 35 0 0 -142 120 0 0 142 35 0 0 0zm-38 6l0 -3 3 0 -3 0 0 3 -3 0 0 -142 -107 0 0 142 -48 0 0 -303 48 0 0 122 107 0 0 -122 47 0 0 303 -44 0 0 0z"/>
   <polygon class="fil2" points="5389,941 5389,800 5275,800 5275,941 5234,941 5234,644 5275,644 5275,766 5389,766 5389,644 5430,644 5430,941 "/>
   <path class="fil2" d="M5427 938l0 -291 -35 0 0 122 -120 0 0 -122 -35 0 0 291 35 0 0 -142 120 0 0 142 35 0 0 0zm-38 6l0 -3 3 0 -3 0 0 3 -3 0 0 -142 -108 0 0 142 -47 0 0 -303 47 0 0 122 108 0 0 -122 47 0 0 303 -44 0 0 0z"/>
   <path class="fil2" d="M5629 685l-2 0c-5,17 -36,123 -41,137l83 0c-5,-14 -36,-120 -40,-137zm76 256l-27 -84 -103 0 -26 84 -43 0 98 -297 52 0 95 297 -46 0z"/>
   <path class="fil2" d="M5626 685l1 0 -1 0 0 0zm39 134c-7,-22 -30,-100 -37,-127l0 0c-8,26 -31,105 -38,127l75 0 0 0zm-84 6l2 -4c5,-14 36,-121 41,-137l0 0 0 -3 5 0 0 4 -1 0 1 0 0 -4 3 0 0 3c4,17 35,124 40,137l0 0 2 4 -93 0 0 0zm-71 113l37 0 26 -84 108 0 26 84 40 0 -94 -291 -47 0 -96 291 0 0zm195 6l0 -3 3 -1 -3 1 0 3 -3 0 -26 -84 -98 0 -26 84 -50 0 100 -303 56 0 98 303 -51 0 0 0z"/>
   <path class="fil2" d="M5932 677c-13,0 -33,1 -47,15 -13,12 -14,27 -14,36 0,11 3,26 17,37 16,11 38,12 48,12l34 0 0 -100 -38 0zm79 264l-41 0 0 -130 -34 0c-12,0 -25,0 -36,10 -10,9 -12,21 -15,30l-9 47c-3,10 -5,21 -14,29 -9,9 -22,13 -37,15l-23 2 -7 -28 6 -2c10,-3 19,-6 25,-12 6,-6 8,-14 9,-20l11 -39c3,-13 7,-24 17,-35 9,-9 18,-13 25,-14l0 -2c-14,-2 -29,-8 -40,-18 -16,-14 -21,-31 -21,-50 0,-29 12,-46 23,-57 24,-22 56,-23 80,-23l81 0 0 297z"/>
   <path class="fil2" d="M5936 780c-11,0 -33,-1 -49,-12l0 0c-16,-12 -19,-28 -19,-40l0 0c0,-9 1,-26 15,-38l0 0c15,-15 36,-16 49,-16l0 6c-13,0 -32,1 -45,14l0 0c-12,11 -13,25 -13,34l0 0c0,10 3,25 16,35l0 0c14,10 36,11 46,11l31 0 0 -94 -35 0 0 -6 41 0 0 106 -37 0 0 0zm75 161l0 -3 0 3zm-159 -271c-11,9 -22,26 -22,54l0 0c0,18 5,35 20,48l0 0c11,9 25,15 39,17l0 0 3 1 0 6 -3 1c-7,1 -15,5 -24,13l0 0c-10,10 -13,21 -16,34l0 0 -11 39c-1,6 -4,14 -9,21l0 0c-7,7 -17,10 -27,13l0 0 -3 1 5 23 21 -2c14,-2 27,-6 35,-14l0 0c8,-8 10,-18 13,-28l0 0 9 -46c3,-10 5,-23 16,-32l0 0c11,-11 26,-11 38,-11l37 0 0 130 35 0 0 -291 -78 0c-24,0 -55,1 -78,23l0 0zm-61 243l3 0 7 -2c9,-3 18,-6 23,-11l0 0c5,-5 7,-13 8,-19l0 0 11 -39c3,-13 7,-25 18,-36l0 0c6,-6 12,-10 18,-12l0 0c-12,-4 -24,-9 -33,-18l0 0c-16,-14 -22,-33 -22,-52l0 0c0,-30 12,-48 24,-59l0 0c25,-24 58,-25 82,-25l84 0 0 304 -47 0 0 -130 -31 0c-12,0 -24,0 -34,9l0 0c-9,8 -11,20 -14,29l0 0 -9 46c-3,10 -5,22 -15,32l0 0c-10,9 -24,13 -39,15l0 0 -25 3 -9 -35 0 0z"/>
   <polygon class="fil2" points="3098,1459 3098,1195 2993,1195 2993,1459 2951,1459 2951,1161 3139,1161 3139,1459 "/>
   <path class="fil2" d="M3136 1456l0 -292 -182 0 0 292 36 0 0 -264 111 0 0 264 35 0 0 0zm-38 6l0 -3 3 0 -3 0 0 3 -4 0 0 -264 -98 0 0 264 -48 0 0 -304 194 0 0 304 -44 0 0 0z"/>
   <path class="fil2" d="M3314 1259c-2,36 -5,84 -9,110 -3,23 -8,55 -27,73 -16,15 -33,18 -47,19l-13 1 -7 -29 10 -3c7,-2 17,-6 25,-14 18,-15 21,-44 24,-76 3,-26 7,-86 8,-112l3 -67 151 0 0 298 -41 0 0 -264 -73 0 -4 64z"/>
   <path class="fil2" d="M3281 1228c-1,26 -5,86 -8,113l0 0c-3,31 -6,60 -25,78l0 0c-8,7 -19,11 -26,14l0 0 -8 2 7 24 10 -1c14,-2 30,-4 44,-18l0 0c19,-18 24,-48 27,-71l0 0c3,-27 7,-75 9,-110l0 0 4 -67 79 0 0 264 35 0 0 -291 -145 0 -3 63 0 0zm-74 203l3 -1 10 -3c7,-2 17,-6 24,-13l0 0c16,-15 20,-42 23,-74l0 0c3,-26 7,-86 8,-112l0 0 3 -70 157 0 0 304 -47 0 0 -264 -68 0 -3 62c-2,35 -5,83 -9,110l0 0c-3,23 -8,55 -28,74l0 0c-16,15 -34,19 -49,20l0 0 -15 2 -9 -35 0 0z"/>
   <path class="fil2" d="M3653 1189c-53,0 -74,39 -74,115 0,75 17,127 76,127 47,0 73,-33 73,-116 0,-79 -19,-126 -75,-126zm2 274c-82,0 -123,-65 -123,-154 0,-97 47,-152 120,-152 88,0 122,73 122,155 0,91 -44,151 -119,151z"/>
   <path class="fil2" d="M3576 1304c0,-76 22,-118 77,-118l0 6c-51,0 -71,36 -71,112l0 0c0,75 17,124 73,124l0 0c45,0 69,-30 70,-113l0 0c-1,-79 -18,-123 -72,-123l0 -6c59,0 78,50 78,129l0 0c0,83 -27,119 -76,119l0 0c-61,0 -79,-55 -79,-130l0 0zm-47 5c0,-98 49,-155 123,-155l0 0c90,0 125,75 126,158l0 0c-1,91 -46,154 -123,154l0 -6c73,0 116,-58 116,-148l0 0c0,-82 -33,-152 -119,-152l0 0c-71,0 -117,53 -117,149l0 0c0,88 40,151 120,151l0 6c-84,0 -126,-68 -126,-157l0 0z"/>
   <polygon class="fil2" points="3916,1425 4003,1425 4003,1161 4044,1161 4044,1425 4131,1425 4131,1161 4173,1161 4173,1425 4203,1425 4203,1536 4164,1536 4164,1459 3874,1459 3874,1161 3916,1161 "/>
   <path class="fil2" d="M3877 1456l290 0 0 77 33 0 0 -105 -30 0 0 -264 -36 0 0 264 -93 0 0 -264 -35 0 0 264 -94 0 0 -264 -35 0 0 292zm284 83l0 -77 -290 0 0 -304 48 0 0 264 81 0 0 -264 47 0 0 264 81 0 0 -264 48 0 0 264 30 0 0 117 -45 0 0 0z"/>
   <path class="fil2" d="M4376 1202l-2 0c-5,17 -36,124 -41,138l83 0c-5,-14 -36,-120 -40,-138zm76 257l-26 -84 -104 0 -25 84 -44 0 98 -298 52 0 95 298 -46 0z"/>
   <path class="fil2" d="M4373 1203l1 0 -1 0 0 0zm39 134c-7,-22 -30,-101 -37,-127l0 0c-7,26 -31,105 -38,127l75 0 0 0zm-84 6l2 -4c5,-14 37,-121 41,-137l0 0 0 -3 5 0 0 3 -1 1 1 -1 0 -3 3 0 0 3c4,17 35,123 40,137l0 0 2 4 -93 0 0 0zm100 29l26 84 40 -1 -94 -291 -47 0 -95 291 36 0 26 -83 108 0 0 0zm24 90l0 -3 3 -1 -3 1 0 3 -2 0 -27 -84 -98 0 -26 84 -50 0 100 -304 56 0 98 304 -51 0 0 0z"/>
   <path class="fil2" d="M4660 1232c-2,35 -5,66 -16,108 -8,29 -17,56 -32,85l122 0 0 -230 -72 0 -2 37zm116 193l30 0 0 111 -39 0 0 -77 -172 0 0 77 -40 0 0 -111 19 0c15,-28 28,-62 37,-98 11,-45 13,-86 15,-122l1 -44 149 0 0 264z"/>
   <path class="fil2" d="M4731 1422l0 -224 -66 0 -2 34c-2,35 -5,67 -16,109l0 0c-8,27 -17,53 -30,81l114 0 0 0zm-124 6l2 -4c15,-29 24,-56 32,-84l0 0c11,-42 14,-74 16,-108l0 0 2 -40 78 0 0 236 -130 0 0 0zm163 27l0 78 33 0 0 -105 -30 0 0 -264 -143 0 -1 41c-2,36 -4,77 -16,123l0 0c-9,36 -22,70 -36,98l0 0 -1 2 -18 0 0 105 34 0 0 -78 178 0 0 0zm-6 84l0 -77 -166 0 0 77 -46 0 0 -117 20 0c14,-28 27,-61 36,-96l0 0c11,-45 13,-85 15,-121l0 0 1 -47 155 0 0 264 30 0 0 117 -45 0 0 0z"/>
   <path class="fil2" d="M5099 1186l-14 4c-5,1 -11,3 -15,8 -6,5 -8,11 -9,17l-11 38c-3,12 -6,25 -19,37 -5,5 -11,9 -17,11l0 0c7,2 13,6 17,10 11,11 15,25 18,35l16 56c1,5 3,12 9,18 4,5 12,7 20,10l11 3 -8 29 -21 -2c-12,-1 -27,-4 -37,-14 -10,-9 -14,-23 -16,-36l-11 -52c-2,-10 -7,-24 -14,-30 -9,-9 -21,-10 -29,-10l-34 0 0 141 -42 0 0 -298 42 0 0 123 34 0c8,0 23,0 34,-11 8,-7 10,-18 12,-28l8 -38c3,-12 6,-23 15,-32 11,-11 26,-14 34,-15l19 -2 8 28z"/>
   <path class="fil2" d="M4969 1314c8,0 21,2 31,11l0 0c8,8 12,22 15,32l0 0 11 52c2,13 6,26 15,35l0 0c9,9 23,12 35,13l0 0 19 2 6 -24 -8 -2c-8,-3 -16,-5 -22,-11l0 0c-6,-6 -8,-14 -9,-19l0 0 -16 -56c-3,-11 -7,-24 -17,-33l0 0c-4,-4 -10,-8 -16,-10l0 0 -2 -1 0 -4 2 -1c6,-2 11,-5 16,-10l0 0c12,-11 15,-24 18,-36l0 0 11 -38c1,-6 3,-13 10,-19l0 0c5,-4 11,-7 16,-8l0 0 12 -3 -7 -23 -16 2c-8,1 -23,4 -33,14l0 0c-8,8 -11,19 -13,30l0 0 -9 39c-2,10 -5,21 -13,30l0 0c-12,11 -28,11 -36,11l-37 0 0 -123 -36 0 0 292 36 0 0 -142 37 0 0 0zm128 151l-22 -2c-11,-1 -27,-4 -39,-15l0 0c-10,-10 -14,-24 -16,-37l0 0 -11 -52c-2,-10 -7,-23 -14,-29l0 0c-7,-8 -18,-9 -26,-9l-31 0 0 141 -48 0 0 -304 48 0 0 123 31 0c8,0 22,-1 32,-10l0 0c7,-7 9,-16 11,-27l0 0 8 -38c3,-11 6,-24 15,-33l0 0c12,-13 29,-15 37,-16l0 0 21 -3 9 32 -3 0 3 0 1 3 -3 0 -14 4c-5,1 -10,3 -14,7l0 0c-5,4 -7,10 -8,16l0 0 -11 38c-3,11 -6,26 -20,38l0 0c-4,4 -8,7 -11,9l0 0c4,2 8,5 11,8l0 0c12,11 16,26 19,36l0 0 16 56c1,5 3,12 8,17l0 0c4,4 11,6 19,9l0 0 13 4 -8 35 -3 -1 0 0z"/>
   <path class="fil2" d="M5284 1202l-3 0c-4,17 -35,124 -41,138l84 0c-5,-14 -36,-120 -40,-138zm76 257l-27 -84 -103 0 -26 84 -43 0 98 -298 51 0 96 298 -46 0z"/>
   <path class="fil2" d="M5281 1203l0 0 0 0 0 0zm39 134c-7,-22 -30,-101 -37,-127l0 0c-8,26 -31,105 -38,127l75 0 0 0zm-84 6l2 -4c5,-14 36,-121 40,-137l0 0 1 -3 5 0 0 3 -1 1 1 -1 0 -3 2 0 1 3c4,17 35,123 40,137l0 0 2 4 -93 0 0 0zm100 29l26 84 40 -1 -94 -291 -47 0 -96 291 37 0 26 -83 108 0 0 0zm24 90l0 -3 3 -1 -3 1 0 3 -3 0 -26 -84 -99 0 -25 84 -50 0 99 -304 57 0 97 304 -50 0 0 0z"/>
   <path class="fil2" d="M3079 1727c-10,-10 -25,-14 -48,-14l-38 0 0 113 46 0c20,0 33,-5 43,-17 8,-10 12,-22 12,-39 0,-19 -5,-33 -15,-43zm25 115c-15,11 -31,18 -62,18l-49 0 0 116 -42 0 0 -297 80 0c38,0 54,4 70,14 26,16 40,41 40,72 0,34 -10,56 -37,77z"/>
   <path class="fil2" d="M3039 1829l-49 0 0 -119 41 0c24,0 39,5 51,15l0 0 -3 2 -2 3c-9,-10 -23,-14 -46,-14l-35 0 0 107 43 0c20,0 31,-4 40,-16l0 0c8,-9 12,-21 12,-37l0 0c0,-19 -4,-32 -14,-40l0 0 2 -3 3 -2c10,10 15,25 15,45l0 0c0,18 -4,30 -13,41l0 0c-10,13 -24,18 -44,18l0 0c-1,0 -1,0 -1,0l0 0zm-85 144l36 0 0 -116 52 0c31,0 46,-6 61,-18l0 0c25,-20 35,-41 35,-74l0 0c0,-30 -14,-54 -38,-69l0 0c-16,-10 -31,-14 -69,-14l0 0 -77 0 0 291zm-6 7l0 -304 83 0c38,0 56,4 72,14l0 0c26,17 41,43 41,75l0 0c0,35 -11,58 -38,79l0 0c-15,12 -32,19 -64,19l-46 0 0 117 -48 0 0 0z"/>
   <path class="fil2" d="M3334 1707c-54,0 -75,39 -75,114 0,76 18,128 77,128 46,0 72,-33 72,-116 0,-80 -18,-126 -74,-126zm1 274c-82,0 -123,-65 -123,-154 0,-97 48,-152 121,-152 87,0 122,73 122,155 0,90 -45,151 -120,151z"/>
   <path class="fil2" d="M3256 1821c0,-75 22,-117 78,-117l0 6c-52,0 -72,36 -72,111l0 0c0,76 17,124 74,125l0 0c44,-1 69,-31 69,-113l0 0c0,-80 -18,-123 -71,-123l0 -6c58,0 77,49 77,129l0 0c0,83 -27,119 -75,119l0 0c-62,0 -80,-55 -80,-131l0 0zm-47 6c0,-98 49,-155 124,-155l0 0c90,0 125,75 125,158l0 0c0,91 -46,154 -123,154l0 -6c73,-1 116,-59 117,-148l0 0c-1,-82 -34,-152 -119,-152l0 0c-71,0 -117,53 -118,149l0 0c1,88 40,150 120,151l0 6c-84,0 -126,-68 -126,-157l0 0z"/>
   <path class="fil2" d="M3666 1981c-39,0 -70,-16 -92,-45 -21,-27 -32,-63 -32,-105 0,-34 6,-64 19,-88 22,-42 61,-68 107,-68 28,0 54,8 73,23l-20 28c-17,-12 -33,-17 -53,-17 -29,0 -52,15 -66,42 -9,19 -14,44 -14,80 0,31 4,50 11,68 14,32 41,48 73,48 22,0 38,-6 54,-19l20 28c-22,16 -50,25 -80,25z"/>
   <path class="fil2" d="M3571 1938c-21,-28 -33,-64 -33,-107l0 0c0,-35 7,-65 20,-89l0 0c23,-44 63,-70 110,-70l0 0c29,0 55,8 75,24l0 0 2 2 -24 32 -2 -2c-16,-12 -32,-16 -51,-16l0 0c-28,0 -49,14 -63,40l0 0c-9,19 -14,44 -14,79l0 0c0,31 4,50 11,67l0 0c13,31 39,46 70,46l0 0c22,0 37,-6 52,-18l0 0 3 -2 24 33 -3 2c-23,16 -51,25 -82,25l0 -6c29,0 54,-8 76,-23l0 0 -16 -22c-16,11 -32,17 -54,17l0 0c-33,0 -62,-16 -76,-50l0 0c-7,-18 -11,-38 -11,-69l0 0c0,-36 5,-62 15,-81l0 0c14,-29 38,-45 68,-45l0 0c19,0 36,5 52,16l0 0 17 -22c-18,-14 -43,-21 -69,-21l0 0c-45,0 -83,25 -104,66l0 0c-13,24 -19,53 -19,87l0 0c0,42 11,77 31,103l0 0c22,28 52,43 90,44l0 6c-39,0 -72,-17 -95,-46l0 0z"/>
   <path class="fil2" d="M3951 1981c-38,0 -70,-16 -92,-45 -21,-27 -32,-63 -32,-105 0,-34 7,-64 19,-88 22,-42 61,-68 107,-68 28,0 54,8 73,23l-20 28c-17,-12 -33,-17 -52,-17 -30,0 -53,15 -66,42 -10,19 -15,44 -15,80 0,31 4,50 11,68 14,32 41,48 73,48 22,0 38,-6 54,-19l21 28c-23,16 -50,25 -81,25z"/>
   <path class="fil2" d="M3857 1938c-22,-28 -33,-64 -33,-107l0 0c0,-35 7,-65 19,-89l0 0c23,-44 63,-70 110,-70l0 0c29,0 56,8 75,24l0 0 2 2 -24 32 -2 -2c-16,-12 -32,-16 -50,-16l0 0c-29,0 -50,14 -64,40l0 0c-9,19 -14,44 -14,79l0 0c0,31 4,50 11,67l0 0c13,31 39,46 70,46l0 0c22,0 37,-6 52,-18l0 0 3 -2 24 33 -3 2c-23,16 -51,25 -82,25l0 -6c29,0 54,-8 76,-23l0 0 -16 -22c-16,11 -32,17 -54,17l0 0c-33,0 -62,-16 -76,-50l0 0c-7,-18 -11,-38 -11,-69l0 0c0,-36 5,-62 15,-81l0 0c14,-29 38,-45 69,-45l0 0c18,0 35,5 51,16l0 0 17 -22c-18,-14 -43,-21 -69,-21l0 0c-44,0 -83,25 -104,66l0 0c-12,24 -19,53 -19,87l0 0c0,42 11,77 31,103l0 0c22,28 52,43 90,44l0 6c-39,0 -71,-17 -94,-46l0 0z"/>
   <path class="fil2" d="M4291 1976l0 -191c0,-15 1,-45 2,-58 -3,9 -8,26 -14,36l-111 213 -43 0 0 -297 41 0 0 194c0,14 -1,35 -3,52 5,-14 12,-32 18,-44l104 -202 47 0 0 297 -41 0z"/>
   <path class="fil2" d="M4329 1973l0 -291 -42 0 -103 200c-6,12 -14,30 -18,44l0 0 -6 -2c2,-16 3,-37 3,-51l0 -191 -35 0 0 291 38 0 111 -211c5,-10 11,-26 13,-36l0 0 6 1c-1,13 -2,43 -2,58l0 188 35 0 0 0zm-38 7l0 -4 3 0 -3 0 0 4 -3 0 0 -195c0,-9 0,-23 1,-36l0 0c-2,6 -5,11 -7,16l0 0 -112 215 -48 0 0 -304 47 0 0 197c0,8 0,19 -1,29l0 0c3,-8 7,-16 11,-23l0 0 104 -203 52 0 0 304 -44 0 0 0z"/>
   <path class="fil2" d="M4611 1976l0 -191c0,-15 1,-45 2,-58 -2,9 -8,26 -14,36l-111 213 -43 0 0 -297 41 0 0 194c0,14 -1,35 -3,52 5,-14 12,-32 18,-44l104 -202 47 0 0 297 -41 0z"/>
   <path class="fil2" d="M4649 1973l0 -291 -42 0 -103 200c-6,12 -14,30 -18,44l0 0 -6 -2c2,-16 3,-37 3,-51l0 -191 -35 0 0 291 38 0 111 -211c5,-10 11,-26 13,-36l0 0 6 1c-1,13 -2,43 -2,58l0 188 35 0 0 0zm-38 7l0 -4 3 0 -3 0 0 4 -3 0 0 -195c0,-9 0,-23 1,-36l0 0c-2,6 -5,11 -7,16l0 0 -112 215 -48 0 0 -304 47 0 0 197c0,8 0,19 -1,29l0 0c4,-8 7,-16 11,-23l0 0 105 -203 51 0 0 304 -44 0 0 0z"/>
  </g>
 </g>
</svg>
